<svg width="84" height="20" viewBox="0 0 84 20" fill="none" xmlns="http://www.w3.org/2000/svg">
  <path fill-rule="evenodd" clip-rule="evenodd"
        d="M22.0296 7.62355H23.4253C23.4253 7.62355 23.4253 4.51801 20.0847 4.45754C20.0847 4.45754 17.1697 4.14099 16.5748 6.63642C16.5748 6.63642 16.2498 8.23342 17.1147 9.01093C17.8822 9.67876 18.8199 10.1112 19.8193 10.2586C20.643 10.3983 22.597 10.9757 22.4002 12.7124C22.2035 14.449 17.6136 15.1009 17.4854 11.5671H16.0714C16.0714 11.5671 15.8472 14.7376 18.9773 15.4082C22.1073 16.0785 23.9012 14.1789 23.7548 12.014C23.6083 9.8489 21.4301 9.25777 19.8513 8.90849C18.2725 8.55946 17.7875 7.7817 17.9247 6.97171C18.062 6.16147 19.0917 5.82643 19.9154 5.82643C20.4265 5.79545 20.93 5.96409 21.323 6.29813C21.7159 6.63217 21.9687 7.10638 22.0296 7.62355ZM25.4818 7.74005H26.8867V14.0116H30.2227V7.74005H31.6642V15.5294H25.4818V7.74005ZM37.9613 7.81044C38.2091 7.80794 38.4566 7.83592 38.698 7.89414C39.1263 8.00582 39.5212 8.22318 39.8478 8.52699C40.1741 8.83055 40.4219 9.21131 40.5695 9.63554C40.7468 10.0985 40.8369 10.5912 40.8349 11.0881V12.0193C40.8352 12.2724 40.8121 12.5247 40.7664 12.7736C40.208 15.5483 38.158 15.4134 38.158 15.4134H36.8582C36.1603 15.3532 35.5086 15.0334 35.0279 14.5147L34.8448 15.5391H33.6642V4.51401H35.037V8.55522C35.5871 8.05254 36.3069 7.7857 37.0461 7.81044H37.9613ZM38.8611 13.5261C39.158 13.224 39.3249 12.8143 39.3249 12.3871V10.7668C39.3249 10.3396 39.158 9.92985 38.8611 9.62779C38.5642 9.32573 38.1614 9.15584 37.7415 9.15584H36.6981C36.2782 9.15584 35.8754 9.32573 35.5785 9.62779C35.2817 9.92985 35.1148 10.3396 35.1148 10.7668V12.3871C35.1148 12.8143 35.2817 13.224 35.5785 13.5261C35.8754 13.8282 36.2782 13.998 36.6981 13.998H37.7415C38.1614 13.998 38.5642 13.8282 38.8611 13.5261ZM41.0586 4.51401H42.5092L44.7196 13.998H44.9804L46.7561 4.51401H49.3186L51.1628 14.0353H51.4099L53.6659 4.61195H55.0983L52.5449 15.5391H49.9912L48.1701 6.05055H47.9137L46.1886 15.5391H43.6396L41.0586 4.51401ZM61.6353 7.77475V14.0043H62.6144V15.4709H60.4087L60.2439 14.6142C60.2439 14.6142 59.4844 15.8342 57.4985 15.4709C55.5123 15.1076 55.0546 13.4037 55.5123 11.9651C55.9698 10.5265 58.0751 10.5682 58.0751 10.5682H60.2258V9.17162H56.1071V7.77475H61.6353ZM57.7593 14.1392C59.7086 14.549 60.1938 12.9103 60.1938 12.9103V11.8812H58.0247C57.0636 12.0628 56.9125 12.589 56.9125 12.589C56.8519 12.7466 56.8261 12.9163 56.8372 13.0854C56.8482 13.2543 56.8961 13.4189 56.9769 13.5671C57.0579 13.7153 57.1699 13.8434 57.3052 13.9424C57.4403 14.0413 57.5955 14.1085 57.7593 14.1392ZM65.7562 4.65274H64.3833V15.5521H65.7562V4.65274ZM67.323 4.65274H68.696V15.5521H67.323V4.65274ZM74.1115 7.88451C74.1115 7.88451 71.0503 7.34435 70.1807 10.2123C70.1807 10.2123 69.682 12.4564 70.4781 13.9697C70.8133 14.5106 71.2917 14.9443 71.8584 15.2211C72.425 15.4977 73.057 15.6062 73.6815 15.534C75.9923 15.3618 76.7887 14.1373 76.7887 13.2062H75.3288C75.3288 13.2062 75.3288 14.0906 74.1071 14.1046C74.0468 14.1053 73.9857 14.1062 73.9241 14.1072C72.7385 14.1257 71.3637 14.1471 71.4071 12.3679H77.0083C77.0083 12.3679 77.5392 8.24753 74.1115 7.88451ZM71.4483 11.013C71.3889 10.3102 72.0797 9.04378 73.8188 9.15071C74.3043 9.15071 74.7699 9.34709 75.1132 9.69637C75.4563 10.0456 75.6493 10.5194 75.6493 11.013H71.4483ZM80.6162 4.54871H79.2297L79.2479 7.79867H77.953V9.25126H79.2297V15.5458H83.7647V14.028H80.63V9.21853H83.22V7.79867H80.6162V4.54871Z"
        fill="white"/>
  <g clip-path="url(#clip0_26_4421)">
    <path
      d="M13.338 7.2333V4.45794L2.41721 0L0.235352 1.12749L0.246871 9.76583L8.41731 13.1136L4.0536 15.0043V13.5422L2.05022 12.7147L0.246871 13.582L0.246871 18.8725L2.41913 20L13.338 14.987V11.4311L3.51101 7.42845V5L11.3078 8.16999L13.338 7.2333Z"
      fill="white"/>
  </g>
  <defs>
    <clipPath id="clip0_26_4421">
      <rect width="13.1027" height="20" fill="white" transform="translate(0.235352)"/>
    </clipPath>
  </defs>
</svg>
