<svg width="88" height="88" viewBox="0 0 88 88" fill="none" xmlns="http://www.w3.org/2000/svg">
<path d="M44.043 88H43.9742C42.9591 88 41.9269 87.9657 40.9118 87.897L41.1183 84.8259C42.0645 84.8945 43.028 84.9288 43.9742 84.9288H44.043V88ZM53.4194 86.9877L52.7484 83.968C53.6946 83.7621 54.6409 83.5219 55.5871 83.2474L56.4645 86.1985C55.4667 86.5073 54.4344 86.7647 53.4194 86.9877ZM31.6215 86.2328C30.6237 85.9411 29.6086 85.598 28.628 85.2377L29.7118 82.3552C30.6237 82.6984 31.5527 83.0072 32.4989 83.2817L31.6215 86.2328ZM65.1699 82.5783L63.6731 79.8846C64.5161 79.4213 65.3591 78.9066 66.185 78.3919L67.871 80.9826C66.9763 81.5317 66.0817 82.0807 65.1699 82.5783ZM20.2151 81.0341C19.3376 80.4679 18.4602 79.8674 17.6344 79.2498L19.4925 76.7791C20.2667 77.3624 21.0753 77.9286 21.9011 78.4434L20.2151 81.0341ZM75.1828 75.0462L72.9978 72.8672C73.686 72.1809 74.357 71.4603 74.9936 70.7226L77.3333 72.7471C76.6452 73.5364 75.9226 74.3084 75.1828 75.0462ZM10.7183 72.8329C10.0301 72.0437 9.35914 71.2201 8.73979 70.3966L11.2172 68.5436C11.8021 69.3157 12.4215 70.0877 13.0581 70.8083L10.7183 72.8329ZM82.7011 65.0435L79.9828 63.5679C80.4473 62.7101 80.8946 61.8351 81.2903 60.96L84.0946 62.2468C83.6817 63.1733 83.2 64.117 82.7011 65.0435ZM3.90538 62.3326C3.47527 61.389 3.06236 60.411 2.68387 59.433L5.57419 58.3521C5.91828 59.2614 6.29677 60.1536 6.70968 61.0458L3.90538 62.3326ZM87.0882 53.3079L84.0602 52.6559C84.2667 51.7122 84.4387 50.7343 84.5763 49.7906L87.6387 50.2195C87.5011 51.249 87.3118 52.2956 87.0882 53.3079ZM0.344086 50.3396C0.189247 49.3102 0.0860215 48.2636 0 47.217L3.07957 46.994C3.14839 47.9548 3.25161 48.9327 3.38925 49.8935L0.344086 50.3396ZM84.9032 41.0575C84.8344 40.0967 84.7312 39.1187 84.5936 38.1579L87.6559 37.7118C87.8108 38.7413 87.914 39.7879 88 40.8345L84.9032 41.0575ZM3.37204 38.2609L0.309678 37.8319C0.447312 36.8025 0.636559 35.7559 0.860215 34.7436L3.88817 35.3956C3.68172 36.3392 3.50968 37.3001 3.37204 38.2609ZM82.4086 29.6822C82.0645 28.7729 81.686 27.8807 81.2903 26.9885L84.0946 25.7017C84.5247 26.6453 84.9376 27.6233 85.2989 28.6013L82.4086 29.6822ZM6.65806 27.0914L3.85376 25.8046C4.28387 24.861 4.76559 23.9173 5.26451 22.9908L7.98279 24.4664C7.50107 25.3414 7.05376 26.2164 6.65806 27.0914ZM76.8 19.4907C76.2151 18.7187 75.5957 17.9466 74.9591 17.226L77.2989 15.2014C77.9871 15.9906 78.6581 16.8142 79.2774 17.6377L76.8 19.4907ZM12.9548 17.2946L10.6151 15.2872C11.3032 14.498 12.0258 13.7259 12.7484 12.9881L14.9333 15.1671C14.2624 15.8362 13.5914 16.5568 12.9548 17.2946ZM68.5419 11.2724C67.7677 10.689 66.9591 10.1228 66.1333 9.60811L67.8022 7.01735C68.6796 7.58354 69.557 8.18405 70.3828 8.81887L68.5419 11.2724ZM21.7634 9.64242L20.0774 7.05167C20.9548 6.48547 21.8667 5.93644 22.7785 5.43888L24.2753 8.13258C23.4151 8.61298 22.572 9.1277 21.7634 9.64242ZM58.3054 5.66192C57.3936 5.31878 56.4645 5.00994 55.5355 4.73542L56.4129 1.78436C57.4108 2.07604 58.4258 2.41918 59.4064 2.77949L58.3054 5.66192ZM32.3441 4.76974L31.4667 1.81868C32.4645 1.527 33.4968 1.25249 34.5118 1.02944L35.1828 4.03197C34.2366 4.25502 33.2731 4.49522 32.3441 4.76974ZM46.8989 3.19126C45.9355 3.12263 44.9548 3.08832 43.9742 3.08832H43.8882V0H43.9742C45.0237 0 46.0903 0.0343131 47.1226 0.102942L46.8989 3.19126Z" fill="white"/>
<path d="M43.9743 86.5926C20.4388 86.5926 1.30762 67.4793 1.30762 43.9909C1.30762 20.5197 20.456 1.42358 43.9743 1.42358C67.527 1.42358 86.6754 20.5197 86.6754 43.9909C86.6754 67.4793 67.527 86.5926 43.9743 86.5926ZM43.9743 1.68094C20.5936 1.68094 1.54848 20.657 1.54848 43.9909C1.54848 67.3421 20.5764 86.3352 43.9743 86.3352C67.3721 86.3352 86.4173 67.3421 86.4173 43.9909C86.4173 20.657 67.3893 1.68094 43.9743 1.68094Z" fill="white"/>
<path d="M43.9912 19.1304C30.2105 19.1304 19.0449 30.2655 19.0449 44.0086C19.0449 57.7516 30.2105 68.8867 43.9912 68.8867C57.7718 68.8867 68.9374 57.7516 68.9374 44.0086C68.9374 30.2655 57.7718 19.1304 43.9912 19.1304ZM34.7352 56.9452C32.8944 58.009 29.918 56.3104 28.0944 53.1534C26.2707 49.9965 26.2707 46.5822 28.1116 45.5184C29.9525 44.4547 32.9288 46.1532 34.7524 49.3102C36.5933 52.4671 36.5761 55.8815 34.7352 56.9452ZM34.7697 38.6898C32.946 41.8467 29.9697 43.5453 28.1288 42.4816C26.2879 41.4178 26.2707 38.0035 28.1116 34.8466C29.9352 31.6896 32.9116 29.991 34.7524 31.0548C36.5761 32.1185 36.5933 35.5328 34.7697 38.6898ZM43.9912 62.2983C40.3438 62.2983 37.3675 60.5826 37.3675 58.4551C37.3675 56.3275 40.3266 54.6118 43.9912 54.6118C47.6385 54.6118 50.6148 56.3275 50.6148 58.4551C50.6148 60.5826 47.6385 62.2983 43.9912 62.2983ZM43.9912 33.3882C40.3438 33.3882 37.3675 31.6724 37.3675 29.5449C37.3675 27.4174 40.3266 25.7017 43.9912 25.7017C47.6385 25.7017 50.6148 27.4174 50.6148 29.5449C50.6148 31.6724 47.6385 33.3882 43.9912 33.3882ZM59.8879 53.1534C58.0643 56.3104 55.0879 58.009 53.2471 56.9452C51.4062 55.8815 51.389 52.4671 53.2127 49.3102C55.0363 46.1532 58.0127 44.4547 59.8535 45.5184C61.6944 46.5822 61.7116 49.9965 59.8879 53.1534ZM59.8535 42.4816C58.0127 43.5453 55.0363 41.8467 53.2127 38.6898C51.389 35.5328 51.389 32.1185 53.2471 31.0548C55.0879 29.991 58.0643 31.6896 59.8879 34.8466C61.7116 38.0035 61.6944 41.435 59.8535 42.4816Z" fill="white"/>
<path fill-rule="evenodd" clip-rule="evenodd" d="M43.9919 6.48572C23.2779 6.48572 6.3833 23.3342 6.3833 43.9917C6.3833 64.6491 23.2779 81.4976 43.9919 81.4976C64.7059 81.4976 81.6005 64.6491 81.6005 43.9917C81.6005 23.3514 64.7059 6.48572 43.9919 6.48572ZM68.2156 63.0878L60.5252 58.644C58.908 60.4627 56.9984 62.0069 54.865 63.2079L57.5145 71.6665L52.5252 64.3574C50.3231 65.2839 47.9317 65.8501 45.4371 66.0045L44.1295 74.7719L42.822 66.0217C40.3102 65.8844 37.9188 65.3354 35.7166 64.4432L30.7274 71.7866L33.3596 63.328C31.2091 62.1441 29.2822 60.6343 27.6306 58.8328L19.9403 63.2937L25.9962 56.8082C24.5855 54.8523 23.5016 52.6561 22.7962 50.2884L13.936 50.9747L22.2113 47.7491C22.0048 46.5309 21.8844 45.2785 21.8844 43.9917C21.8844 42.8078 21.9876 41.6239 22.1596 40.4916L13.8672 37.266L22.7274 37.9523C23.3984 35.5846 24.465 33.3713 25.8586 31.3982L19.7855 24.9127L27.4758 29.3564C29.093 27.5378 31.0027 25.9936 33.136 24.7926L30.4865 16.3169L35.4758 23.6431C37.6779 22.7166 40.0693 22.1504 42.564 21.996L43.8715 13.2286L45.179 21.9788C47.6736 22.1161 50.0478 22.6479 52.2672 23.5401L57.2564 16.1968L54.607 24.6553C56.7575 25.8392 58.7016 27.349 60.336 29.1506L68.0263 24.6897L61.9704 31.1751C63.3812 33.1311 64.4822 35.3272 65.1876 37.6949L74.0478 37.0086L65.7898 40.2342C65.9962 41.4695 66.1166 42.722 66.1166 44.0088C66.1166 45.1927 66.0134 46.3594 65.8414 47.4918L74.1166 50.7002L65.2736 50.031C64.6027 52.4159 63.536 54.6121 62.1597 56.6023L68.2156 63.0878Z" fill="white"/>
</svg>
